<?xml version="1.0" encoding="utf-8"?>
<!-- Generator: Adobe Illustrator 16.0.4, SVG Export Plug-In . SVG Version: 6.00 Build 0)  -->
<!DOCTYPE svg PUBLIC "-//W3C//DTD SVG 1.1//EN" "http://www.w3.org/Graphics/SVG/1.1/DTD/svg11.dtd">
<svg version="1.1" id="Layer_1" xmlns="http://www.w3.org/2000/svg" xmlns:xlink="http://www.w3.org/1999/xlink" x="0px" y="0px"
	 width="281.554px" height="219.6px" viewBox="0 0 281.554 219.6" enable-background="new 0 0 281.554 219.6" xml:space="preserve">
<g>
	<path fill="#525e74" d="M280.08,51.84l-50.399-50.4C228.96,0.72,227.521,0,226.08,0s-2.88,0.72-3.6,1.44l-144,144l0,0
		c-0.721,0.72-0.721,0.72-0.721,1.44l0,0v0.72l-8.64,58.32c0,1.439,0,3.6,1.44,4.319c0.72,0.72,2.159,1.44,3.6,1.44h0.72
		l58.32-8.641c0.72,0,0.72,0,0.72,0l0,0c0.72,0,1.44-0.72,1.44-0.72l0,0L256.32,81.36l0,0l0,0l22.319-22.32
		C282.24,56.88,282.24,54,280.08,51.84z M203.76,35.28l42.48,42.48L132.48,191.52l-20.88-20.88L90.72,149.76L203.76,35.28z
		 M79.92,201.6l5.76-40.32l17.28,17.28l17.28,17.28L79.92,201.6z M253.44,70.56l-42.48-42.48l15.12-15.12l42.479,42.48L253.44,70.56
		z"/>
	<path fill="#525e74" d="M41.04,208.08H5.76c-2.88,0-5.76,2.16-5.76,5.761c0,3.6,2.16,5.76,5.76,5.76h35.28c2.88,0,5.76-2.16,5.76-5.76
		C46.8,210.24,44.64,208.08,41.04,208.08z"/>
</g>
</svg>
